<svg xmlns="http://www.w3.org/2000/svg" xmlns:xlink="http://www.w3.org/1999/xlink" width="500" zoomAndPan="magnify" viewBox="0 0 375 374.999991" height="500" preserveAspectRatio="xMidYMid meet" version="1.2"><defs><clipPath id="7c1e4227fa"><path d="M 52.570312 90.195312 L 322.4375 90.195312 L 322.4375 284.804688 L 52.570312 284.804688 Z M 52.570312 90.195312 "/></clipPath><clipPath id="0bca65d574"><path d="M 230.921875 90.195312 C 281.460938 90.195312 322.429688 133.761719 322.429688 187.5 C 322.429688 241.238281 281.460938 284.804688 230.921875 284.804688 L 144.078125 284.804688 C 93.539062 284.804688 52.570312 241.238281 52.570312 187.5 C 52.570312 133.761719 93.539062 90.195312 144.078125 90.195312 Z M 230.921875 90.195312 "/></clipPath><clipPath id="2df6d6516b"><path d="M 142 148 L 233 148 L 233 247.742188 L 142 247.742188 Z M 142 148 "/></clipPath><clipPath id="8ab89d95ab"><path d="M 123.554688 126.992188 L 251.441406 126.992188 L 251.441406 191 L 123.554688 191 Z M 123.554688 126.992188 "/></clipPath><clipPath id="9ff033ded5"><path d="M 169.273438 187.359375 L 205.585938 187.359375 L 205.585938 254.753906 L 169.273438 254.753906 Z M 169.273438 187.359375 "/></clipPath><clipPath id="13db22f79d"><path d="M 186.664062 187.5 L 188.335938 187.5 C 192.910156 187.5 197.296875 189.316406 200.53125 192.550781 C 203.769531 195.789062 205.585938 200.175781 205.585938 204.75 L 205.585938 237.449219 C 205.585938 242.023438 203.769531 246.410156 200.53125 249.644531 C 197.296875 252.878906 192.910156 254.699219 188.335938 254.699219 L 186.664062 254.699219 C 182.089844 254.699219 177.703125 252.878906 174.46875 249.644531 C 171.230469 246.410156 169.414062 242.023438 169.414062 237.449219 L 169.414062 204.75 C 169.414062 200.175781 171.230469 195.789062 174.46875 192.550781 C 177.703125 189.316406 182.089844 187.5 186.664062 187.5 Z M 186.664062 187.5 "/></clipPath><clipPath id="05aa4bdd41"><path d="M 174.804688 193.605469 L 200.191406 193.605469 L 200.191406 248.046875 L 174.804688 248.046875 Z M 174.804688 193.605469 "/></clipPath><clipPath id="139ae91474"><path d="M 187.5 193.605469 C 190.867188 193.605469 194.09375 194.941406 196.476562 197.324219 C 198.855469 199.703125 200.191406 202.933594 200.191406 206.296875 L 200.191406 235.316406 C 200.191406 238.683594 198.855469 241.910156 196.476562 244.292969 C 194.09375 246.671875 190.867188 248.007812 187.5 248.007812 C 184.132812 248.007812 180.90625 246.671875 178.523438 244.292969 C 176.144531 241.910156 174.804688 238.683594 174.804688 235.316406 L 174.804688 206.296875 C 174.804688 202.933594 176.144531 199.703125 178.523438 197.324219 C 180.90625 194.941406 184.132812 193.605469 187.5 193.605469 Z M 187.5 193.605469 "/></clipPath></defs><g id="7792113b4a"><g clip-rule="nonzero" clip-path="url(#7c1e4227fa)"><g clip-rule="nonzero" clip-path="url(#0bca65d574)"><path style=" stroke:none;fill-rule:nonzero;fill:#ff3131;fill-opacity:1;" d="M 52.570312 90.195312 L 322.4375 90.195312 L 322.4375 284.804688 L 52.570312 284.804688 Z M 52.570312 90.195312 "/></g></g><g clip-rule="nonzero" clip-path="url(#2df6d6516b)"><path style=" stroke:none;fill-rule:nonzero;fill:#ffffff;fill-opacity:1;" d="M 142.832031 188.371094 Z M 142.832031 188.371094 L 187.617188 148.703125 L 232.433594 188.386719 L 232.433594 245.085938 C 232.433594 246.550781 231.25 247.726562 229.785156 247.726562 L 201.78125 247.726562 L 201.78125 222.867188 C 201.78125 221.402344 200.605469 220.21875 199.140625 220.21875 L 176.128906 220.21875 C 174.664062 220.21875 173.488281 221.402344 173.488281 222.867188 L 173.488281 247.726562 L 145.472656 247.726562 C 144.007812 247.726562 142.832031 246.550781 142.832031 245.085938 L 142.832031 188.367188 Z M 232.433594 188.386719 Z M 232.433594 188.386719 "/></g><g clip-rule="nonzero" clip-path="url(#8ab89d95ab)"><path style=" stroke:none;fill-rule:nonzero;fill:#ffffff;fill-opacity:1;" d="M 187.878906 126.996094 L 251.441406 183.273438 L 244.746094 190.828125 L 187.621094 140.246094 L 130.507812 190.828125 L 123.824219 183.273438 L 187.371094 126.996094 L 187.617188 127.28125 Z M 187.878906 126.996094 "/></g><path style=" stroke:none;fill-rule:nonzero;fill:#ffffff;fill-opacity:1;" d="M 232.433594 135.097656 L 216.320312 135.097656 L 216.460938 144.640625 L 232.433594 159.070312 Z M 232.433594 135.097656 "/><g clip-rule="nonzero" clip-path="url(#9ff033ded5)"><g clip-rule="nonzero" clip-path="url(#13db22f79d)"><path style=" stroke:none;fill-rule:nonzero;fill:#ff3131;fill-opacity:1;" d="M 169.414062 187.5 L 205.585938 187.5 L 205.585938 254.753906 L 169.414062 254.753906 Z M 169.414062 187.5 "/></g></g><g clip-rule="nonzero" clip-path="url(#05aa4bdd41)"><g clip-rule="nonzero" clip-path="url(#139ae91474)"><path style=" stroke:none;fill-rule:nonzero;fill:#ffffff;fill-opacity:1;" d="M 174.804688 193.605469 L 200.191406 193.605469 L 200.191406 248.046875 L 174.804688 248.046875 Z M 174.804688 193.605469 "/></g></g></g></svg>